<svg xmlns="http://www.w3.org/2000/svg" xml:space="preserve" width="85mm" height="85mm" viewBox="0 0 85 85"><g transform="translate(-65.62 -97.19)"><path d="M77.29 109.61c1.62 0 2.92 1.17 2.92 2.62V132c0 1.45-1.3 2.62-2.92 2.62-1.62 0-2.92-1.17-2.92-2.62v-19.77c0-1.45 1.3-2.62 2.92-2.62zm0 48.33c1.62 0 2.92 1.17 2.92 2.62v9.6c0 1.46-1.3 2.62-2.92 2.62-1.62 0-2.92-1.16-2.92-2.61v-9.61c0-1.45 1.3-2.62 2.92-2.62zm20.53-17.44c1.62 0 2.92 1.17 2.92 2.62v35.77c0 1.45-1.3 2.61-2.92 2.61-1.62 0-2.92-1.16-2.92-2.61v-35.77c0-1.45 1.3-2.62 2.92-2.62zm0-41.16c1.62 0 2.92 1.17 2.92 2.62v12.28c0 1.45-1.3 2.62-2.92 2.62-1.62 0-2.92-1.17-2.92-2.62v-12.28c0-1.45 1.3-2.62 2.92-2.62zm20.57-1.47c1.61 0 2.92 1.17 2.92 2.62v35.69c0 1.45-1.3 2.62-2.92 2.62-1.62 0-2.92-1.17-2.92-2.62v-35.7c0-1.44 1.3-2.6 2.92-2.6zm0 66.23c1.61 0 2.92 1.17 2.92 2.62v12.17c0 1.45-1.3 2.61-2.92 2.61-1.62 0-2.92-1.16-2.92-2.61v-12.17c0-1.45 1.3-2.62 2.92-2.62zm20.56-13.35c1.62 0 2.92 1.17 2.92 2.62v15.21c0 1.45-1.3 2.62-2.92 2.62-1.62 0-2.92-1.17-2.92-2.62v-15.21c0-1.45 1.3-2.62 2.92-2.62zm0-41.14c1.62 0 2.92 1.17 2.92 2.62v12.18c0 1.45-1.3 2.62-2.92 2.62-1.62 0-2.92-1.17-2.92-2.62v-12.18c0-1.45 1.3-2.62 2.92-2.62z" style="fill:#fff;stroke-width:.1;stroke-linecap:round;stroke-linejoin:round;paint-order:markers fill stroke"/><ellipse cx="77.29" cy="146.29" rx="5.82" ry="5.88" style="fill:#238bfe;fill-opacity:1;stroke-width:.1;stroke-linecap:round;stroke-linejoin:round;paint-order:markers fill stroke"/><ellipse cx="97.82" cy="127.96" rx="5.82" ry="5.88" style="fill:#d831a3;fill-opacity:1;stroke-width:.1;stroke-linecap:round;stroke-linejoin:round;paint-order:markers fill stroke"/><ellipse cx="118.39" cy="152.17" rx="5.82" ry="5.88" style="fill:#23e4df;fill-opacity:1;stroke-width:.1;stroke-linecap:round;stroke-linejoin:round;paint-order:markers fill stroke"/><ellipse cx="138.95" cy="139" rx="5.82" ry="5.88" style="fill:#b437ff;fill-opacity:1;stroke-width:.1;stroke-linecap:round;stroke-linejoin:round;paint-order:markers fill stroke"/></g></svg>
